<svg width="37" height="41" viewBox="0 0 37 41" fill="none" xmlns="http://www.w3.org/2000/svg">
<g clip-path="url(#clip0_39_840)">
<path d="M24.7437 19.3464C28.8974 19.3464 32.2647 15.9886 32.2647 11.8464C32.2647 7.7043 28.8974 4.34644 24.7437 4.34644C20.59 4.34644 17.2227 7.7043 17.2227 11.8464C17.2227 15.9886 20.59 19.3464 24.7437 19.3464Z" fill="#E8618C"/>
<path d="M24.7437 37.4563C28.8974 37.4563 32.2647 34.0985 32.2647 29.9563C32.2647 25.8142 28.8974 22.4563 24.7437 22.4563C20.59 22.4563 17.2227 25.8142 17.2227 29.9563C17.2227 34.0985 20.59 37.4563 24.7437 37.4563Z" fill="#22CCB2"/>
<path d="M-0.19043 17.1465C-0.19043 10.1049 5.53395 4.39648 12.5953 4.39648V24.6465C12.5953 31.6881 6.87089 37.3965 -0.19043 37.3965V17.1465Z" fill="#636AE8"/>
</g>
<defs>
<clipPath id="clip0_39_840">
<rect y="0.713379" width="37" height="40" rx="6" fill="white"/>
</clipPath>
</defs>
</svg>
